<svg width="54" height="54" viewBox="0 0 54 54" fill="none" xmlns="http://www.w3.org/2000/svg">
<path d="M38.5714 0H15.4286C6.90761 0 0 6.90761 0 15.4286V38.5714C0 47.0924 6.90761 54 15.4286 54H38.5714C47.0924 54 54 47.0924 54 38.5714V15.4286C54 6.90761 47.0924 0 38.5714 0Z" fill="#0289F7"/>
<g transform="translate(15,15)">
<path d="M3 7V5a2 2 0 0 1 2-2h2" stroke="white" stroke-width="2" fill="none" stroke-linecap="round" stroke-linejoin="round"/>
<path d="M17 3h2a2 2 0 0 1 2 2v2" stroke="white" stroke-width="2" fill="none" stroke-linecap="round" stroke-linejoin="round"/>
<path d="M21 17v2a2 2 0 0 1-2 2h-2" stroke="white" stroke-width="2" fill="none" stroke-linecap="round" stroke-linejoin="round"/>
<path d="M7 21H5a2 2 0 0 1-2-2v-2" stroke="white" stroke-width="2" fill="none" stroke-linecap="round" stroke-linejoin="round"/>
<path d="M7 12h10" stroke="white" stroke-width="2" fill="none" stroke-linecap="round" stroke-linejoin="round"/>
</g>
</svg>
